<?xml version="1.0" standalone="no"?>
<!DOCTYPE svg PUBLIC "-//W3C//DTD SVG 20010904//EN"
 "http://www.w3.org/TR/2001/REC-SVG-20010904/DTD/svg10.dtd">
<svg version="1.0" xmlns="http://www.w3.org/2000/svg"
 width="500.000000pt" height="500.000000pt" viewBox="0 0 500.000000 500.000000"
 preserveAspectRatio="xMidYMid meet">
<metadata>
Created by potrace 1.11, written by Peter Selinger 2001-2013
</metadata>
<g transform="translate(0.000000,500.000000) scale(0.100000,-0.100000)"
fill="#000000" stroke="none">
<path d="M1936 4991 c-3 -5 -22 -50 -41 -101 -27 -70 -35 -107 -35 -153 1 -74
6 -83 175 -262 146 -156 248 -239 318 -260 31 -9 164 -23 333 -35 154 -10 314
-27 355 -36 41 -9 137 -43 214 -76 204 -88 240 -99 344 -107 89 -8 96 -10 123
-40 15 -17 28 -42 28 -54 0 -13 -18 -58 -40 -100 -22 -41 -40 -85 -40 -97 0
-12 16 -50 35 -84 58 -104 43 -126 -34 -50 -68 69 -118 89 -221 89 -73 0 -92
-4 -135 -27 -59 -31 -127 -100 -151 -155 -12 -25 -17 -66 -18 -123 -1 -76 2
-90 28 -138 90 -162 310 -294 539 -324 114 -15 109 -12 93 -50 -30 -71 -31
-225 -3 -215 6 2 17 43 23 90 12 90 29 128 65 148 18 9 238 47 304 52 17 2 21
-6 26 -53 13 -119 53 -210 81 -182 8 8 5 29 -10 77 -27 80 -28 145 -4 174 9
11 73 46 142 77 69 30 129 60 134 65 18 17 36 9 42 -18 21 -93 72 -193 99
-193 27 0 25 20 -8 87 -71 142 -69 147 102 278 203 156 201 154 201 203 0 22
-4 43 -10 47 -6 4 -6 15 0 31 6 14 10 78 10 143 0 111 -1 120 -22 135 l-23 17
23 -6 c19 -6 22 -3 22 24 0 18 -5 31 -12 31 -9 0 -9 3 0 12 7 7 12 27 12 45
l0 33 -32 -13 c-41 -17 -51 -42 -14 -35 17 4 25 1 23 -6 -2 -6 -19 -11 -38
-11 -30 0 -34 -3 -31 -24 1 -17 -2 -22 -13 -17 -8 3 -15 1 -15 -5 0 -18 30
-41 45 -35 9 3 19 -6 28 -24 14 -27 13 -29 -8 -34 -13 -3 -30 -3 -38 0 -9 3
-16 -3 -20 -17 -5 -18 -9 -20 -21 -10 -11 10 -19 9 -35 -1 -22 -14 -20 -40 5
-66 8 -7 14 -22 14 -33 0 -21 15 -26 26 -8 3 6 0 15 -7 20 -11 7 -10 9 4 9 9
0 17 -5 17 -11 0 -6 8 -8 19 -4 11 3 22 2 25 -3 3 -5 -7 -12 -23 -15 -22 -5
-32 -15 -41 -42 -8 -23 -18 -35 -30 -35 -17 0 -70 -43 -70 -55 0 -3 21 -5 46
-5 49 0 88 -15 78 -31 -3 -5 -15 -7 -27 -3 -17 5 -16 2 8 -19 24 -21 26 -26
13 -27 -10 0 -18 -6 -18 -14 0 -28 -238 -194 -381 -267 -51 -25 -60 -28 -54
-12 4 10 26 69 48 132 131 378 73 667 -185 917 -190 184 -388 284 -563 284
l-61 0 -12 68 c-11 65 -79 242 -93 242 -3 0 -9 -41 -12 -90 -15 -201 -98 -278
-218 -201 -25 15 -110 93 -189 172 -203 202 -287 243 -495 242 -131 -1 -217
-18 -420 -83 l-150 -49 -3 23 c-2 13 6 58 16 99 11 42 17 78 15 81 -3 3 -32
-28 -63 -68 -32 -40 -65 -76 -74 -79 -30 -12 -38 28 -31 144 7 101 5 123 -9
100z m1850 -673 c9 -14 -113 -127 -138 -128 -22 0 -23 19 -1 87 l17 53 57 0
c33 0 61 -5 65 -12z m121 -20 c179 -67 389 -242 491 -411 131 -216 120 -496
-32 -839 -23 -53 -28 -57 -83 -78 -129 -49 -339 -86 -443 -78 -41 3 -45 5 -42
28 10 99 4 200 -16 264 -26 81 -28 165 -6 248 18 71 13 104 -27 175 -16 29
-29 58 -29 65 0 6 15 41 34 77 57 112 56 146 -5 215 l-32 37 41 87 c25 55 43
109 47 147 7 58 18 85 36 85 4 0 34 -10 66 -22z m1053 -628 c0 -15 -26 -23
-41 -14 -9 5 -7 10 7 15 27 11 34 10 34 -1z m-1392 -116 c52 -26 112 -84 112
-108 0 -17 -46 -24 -215 -31 -71 -3 -156 -8 -188 -11 -46 -4 -58 -2 -63 11
-14 34 78 127 151 153 57 20 146 14 203 -14z m1376 -29 c-3 -7 -12 -16 -20
-19 -8 -3 -13 -2 -11 2 2 4 7 15 10 25 4 10 11 16 16 12 6 -3 8 -12 5 -20z m8
-123 c-10 -15 -18 -20 -20 -12 -5 15 -42 53 -42 43 0 -4 -5 -2 -12 5 -9 9 -9
15 0 24 9 9 12 9 12 -1 0 -8 7 -10 19 -6 14 4 21 0 24 -12 3 -13 6 -10 12 12
l8 30 8 -29 c6 -20 3 -36 -9 -54z m-1242 -37 c17 -20 5 -107 -21 -162 -27 -55
-97 -117 -156 -137 -100 -34 -179 -12 -268 77 -62 63 -96 149 -76 193 14 32
54 32 75 -1 9 -14 25 -25 36 -25 13 0 24 10 30 25 5 14 11 26 12 26 7 3 218
16 284 17 53 2 75 -2 84 -13z m41 -236 c13 -44 9 -149 -5 -184 -13 -31 -19
-35 -51 -35 -40 0 -176 42 -213 66 -30 20 -21 30 30 38 58 9 139 57 180 106
36 44 49 46 59 9z"/>
<path d="M1755 4640 c-64 -16 -142 -53 -192 -91 -53 -40 -136 -133 -170 -189
-16 -27 -22 -31 -48 -25 -176 35 -342 -8 -541 -140 -277 -185 -424 -422 -424
-684 0 -158 33 -276 153 -546 44 -99 124 -295 179 -435 55 -140 115 -292 135
-337 l35 -82 -23 -46 c-13 -26 -26 -48 -30 -50 -3 -3 -12 15 -20 38 -7 23 -18
45 -24 49 -20 15 -27 8 -20 -19 l7 -28 -25 27 c-17 18 -23 34 -20 48 4 14 1
20 -11 20 -10 0 -16 -9 -16 -25 0 -19 -5 -25 -21 -25 -32 0 -22 51 14 68 28
14 34 26 17 37 -6 3 -13 -1 -16 -9 -3 -9 -17 -16 -30 -16 -17 0 -24 -6 -24
-20 0 -11 -4 -20 -9 -20 -5 0 -7 9 -4 20 4 16 2 19 -11 14 -13 -5 -16 1 -16
30 0 20 -5 36 -10 36 -13 0 -45 -30 -54 -50 -3 -8 -4 0 -1 18 3 23 0 34 -10
38 -8 4 -15 12 -15 20 0 17 -5 17 -30 4 -16 -9 -19 -5 -26 33 -4 23 -6 47 -5
52 2 6 5 19 8 30 4 18 3 18 -16 -4 -13 -15 -22 -38 -22 -65 -1 -22 -4 -31 -6
-18 -6 30 -33 29 -33 -2 0 -14 -5 -28 -11 -32 -8 -4 -9 3 -4 25 4 20 3 31 -4
31 -6 0 -11 7 -11 15 0 8 -4 15 -9 15 -5 0 -13 9 -16 20 -10 30 -19 24 -39
-24 -19 -46 -54 -76 -41 -36 5 16 2 20 -14 20 -12 0 -21 5 -21 11 0 6 -10 9
-22 7 -23 -3 -25 -7 -27 -66 0 -18 -5 -31 -11 -27 -5 3 -6 13 -3 21 5 14 3 15
-15 5 -23 -12 -27 -23 -15 -35 4 -4 8 -17 8 -29 0 -12 6 -21 13 -19 7 1 12 -8
12 -24 0 -16 -4 -23 -12 -18 -8 5 -9 0 -6 -14 4 -12 2 -22 -3 -22 -5 0 -9 7
-9 15 0 22 -30 65 -45 65 -7 0 -15 -10 -19 -22 -5 -19 -8 -21 -16 -8 -14 21
-12 30 4 30 8 0 17 7 20 16 3 9 12 14 20 11 15 -6 24 42 18 96 -3 23 -6 26
-18 16 -8 -7 -12 -22 -9 -38 5 -25 5 -25 -6 -4 -9 18 -9 27 4 46 12 18 12 26
2 40 -17 24 -22 22 -29 -18 -8 -41 -26 -56 -26 -21 0 14 -5 28 -10 31 -7 4
-10 -145 -10 -439 0 -436 0 -445 20 -451 23 -7 60 2 60 15 0 4 15 7 33 5 31
-3 33 -1 29 25 -3 22 1 28 19 33 27 7 39 1 39 -19 0 -8 7 -14 15 -14 18 0 20
30 3 31 -7 0 3 6 22 13 20 8 42 10 51 5 9 -5 21 -3 27 3 18 18 25 3 10 -21
-11 -17 -10 -23 3 -36 13 -13 20 -14 42 -4 31 14 36 34 7 26 -16 -4 -20 0 -20
19 0 14 7 27 18 31 9 4 22 13 28 21 8 11 13 12 18 4 4 -7 2 -12 -3 -12 -14 0
-14 -27 0 -36 6 -3 14 -3 18 2 15 21 48 33 60 21 10 -9 16 -8 26 7 10 13 22
17 39 14 27 -6 52 14 41 32 -3 5 -1 10 5 10 6 0 10 -8 9 -17 -3 -31 1 -38 11
-23 8 13 11 11 16 -7 7 -26 35 -30 57 -8 13 13 16 12 23 -3 4 -9 6 -23 5 -29
-1 -7 5 -13 14 -13 11 0 15 11 15 41 0 28 4 39 13 36 6 -2 12 -9 12 -15 0 -6
5 -16 12 -23 10 -10 15 -9 27 1 9 7 22 10 30 7 7 -3 19 0 25 6 8 8 11 8 11 -1
0 -7 14 -10 40 -8 22 2 40 -1 40 -5 0 -5 -7 -9 -15 -9 -9 0 -15 -9 -15 -25 0
-14 -4 -25 -10 -25 -5 0 -10 7 -10 15 0 8 -7 15 -16 15 -12 0 -15 -6 -10 -26
7 -26 6 -27 -30 -21 -28 5 -34 3 -26 -5 20 -20 14 -48 -12 -60 -18 -8 -24 -18
-23 -37 1 -18 -4 -27 -18 -29 -17 -4 -18 -2 -5 13 12 15 12 19 -3 29 -19 15
-4 38 19 29 9 -3 14 2 14 16 0 21 -25 30 -32 11 -2 -8 -27 -16 -60 -19 -4 -1
-5 -8 -2 -16 8 -20 -15 -19 -38 2 -13 11 -22 14 -26 7 -4 -6 -17 -16 -29 -23
-13 -6 -23 -18 -23 -26 0 -8 -7 -15 -15 -15 -9 0 -15 9 -15 25 0 18 -5 25 -20
25 -11 0 -20 5 -20 10 0 6 5 10 11 10 6 0 9 6 6 14 -4 10 4 13 33 12 30 0 36
-3 28 -14 -6 -7 -8 -16 -4 -20 4 -4 14 2 22 13 8 11 24 31 36 44 l22 23 -23
20 c-29 23 -54 20 -59 -7 -2 -11 -9 -24 -14 -30 -7 -7 -9 -3 -5 13 4 17 1 22
-14 22 -10 0 -19 -6 -19 -12 0 -10 -3 -9 -9 1 -11 17 -31 6 -31 -18 0 -12 -7
-17 -23 -17 -31 1 -38 -57 -8 -76 28 -17 26 -23 -8 -23 -16 0 -27 5 -25 10 6
17 -13 38 -29 32 -9 -3 -17 -16 -19 -29 -2 -12 -11 -24 -20 -26 -12 -2 -15 2
-11 17 4 16 1 21 -16 21 -11 0 -21 -6 -21 -14 0 -15 -33 -26 -92 -32 -28 -2
-38 0 -38 11 0 20 -19 29 -26 11 -3 -8 3 -25 14 -37 19 -20 19 -57 0 -58 -23
-2 -27 2 -30 31 -4 42 -23 46 -39 9 -10 -23 -16 -27 -26 -19 -7 6 -13 19 -13
30 0 11 -9 22 -20 25 -11 3 -20 12 -20 19 0 8 -9 14 -20 14 -20 0 -20 -7 -20
-400 0 -313 3 -400 13 -400 9 0 9 -2 -1 -9 -10 -6 -12 -32 -10 -99 4 -93 9
-109 27 -97 17 10 13 38 -4 31 -21 -8 -19 7 4 21 15 10 18 9 17 -5 0 -9 5 -16
12 -14 6 1 17 3 24 5 17 3 22 -31 7 -49 -9 -11 -23 -14 -47 -10 -27 4 -33 2
-28 -9 3 -8 1 -15 -4 -15 -6 0 -10 -74 -10 -190 l0 -190 166 0 c135 0 165 3
161 13 -8 22 6 34 33 26 l25 -7 -22 -7 c-30 -10 -29 -25 1 -25 37 0 42 19 12
46 -27 26 -32 49 -16 74 8 12 10 9 8 -10 -2 -17 2 -25 12 -25 8 0 15 7 16 15
2 34 4 40 14 40 6 0 10 -11 10 -25 0 -21 5 -25 33 -26 17 -1 24 -3 15 -6 -10
-2 -21 -15 -24 -29 -3 -13 -12 -24 -20 -24 -8 0 -14 -7 -14 -15 0 -12 19 -15
114 -15 l113 0 7 53 c28 215 124 519 231 735 121 243 243 410 431 592 104 100
254 220 320 256 30 16 31 16 84 -24 63 -48 183 -108 311 -157 51 -20 99 -41
106 -47 9 -7 13 -45 13 -135 0 -139 10 -172 60 -198 16 -8 44 -15 62 -15 18 0
38 -4 43 -8 12 -8 100 -835 106 -994 l2 -58 589 0 c464 0 588 3 588 13 0 22
-38 211 -60 295 -11 46 -45 159 -75 250 -29 92 -63 199 -74 237 -34 120 -70
355 -54 355 4 0 39 -7 76 -16 56 -14 75 -15 107 -5 86 26 99 69 68 233 -12 65
-18 121 -14 125 9 9 107 -89 166 -166 81 -107 159 -282 204 -458 42 -161 90
-603 68 -625 -7 -7 -33 21 -83 88 -40 55 -105 133 -144 174 l-72 75 -12 80
c-6 44 -16 84 -20 88 -19 19 -31 -6 -31 -64 0 -34 -3 -59 -7 -57 -5 2 -24 12
-45 22 -35 18 -68 17 -68 -3 0 -6 33 -31 73 -57 142 -92 311 -299 413 -506
l38 -78 478 0 478 0 0 160 c0 144 -8 195 -23 140 -3 -13 -10 -18 -21 -14 -9 3
-31 -1 -50 -10 -18 -9 -44 -17 -57 -18 -13 -2 -27 -11 -31 -21 -4 -9 -14 -17
-22 -17 -19 0 -16 38 3 45 13 5 13 8 2 14 -7 5 -10 14 -6 21 5 8 12 7 25 -5
21 -19 40 -12 40 15 0 23 -19 30 -44 18 -13 -7 -21 -6 -27 3 -24 37 10 85 61
88 19 1 46 4 60 5 14 2 40 4 58 5 25 1 32 5 32 21 0 18 -4 20 -35 14 -29 -5
-43 -1 -76 22 -26 18 -56 29 -81 30 -23 1 -35 -1 -28 -6 8 -5 9 -9 1 -14 -6
-4 -16 -4 -23 0 -6 4 -17 -1 -24 -11 -13 -17 -15 -16 -44 14 -30 31 -50 34
-50 6 0 -7 10 -16 23 -18 12 -2 2 -5 -23 -6 -141 -6 -168 -5 -163 3 3 4 -1 12
-8 17 -22 14 -32 11 -27 -9 4 -16 -3 -18 -66 -20 -39 -1 -84 -5 -101 -8 -26
-6 -28 -5 -16 9 15 19 6 38 -14 30 -8 -3 -15 0 -15 6 0 6 16 11 36 11 34 0 36
2 31 28 -3 15 -9 35 -12 45 -4 10 -3 17 4 17 6 0 11 -4 11 -10 0 -10 51 9 61
23 4 5 28 11 55 13 158 14 180 17 190 30 10 12 12 11 17 -7 5 -18 11 -21 39
-16 18 3 41 8 51 12 12 5 17 2 17 -9 0 -14 9 -17 47 -14 42 3 49 6 53 28 5 23
40 40 40 19 0 -5 -7 -9 -15 -9 -8 0 -15 -7 -15 -15 0 -16 1 -16 37 -20 12 -1
28 -5 36 -8 8 -3 31 -1 51 5 l36 11 0 123 0 122 -27 -7 c-19 -6 -27 -14 -26
-27 2 -17 -6 -19 -75 -20 -61 -1 -70 1 -44 8 20 5 32 15 33 26 0 10 3 12 6 5
2 -7 18 -13 34 -13 23 0 29 5 29 21 0 16 -4 19 -20 14 -11 -4 -20 -2 -20 4 0
6 9 11 20 11 24 0 37 27 21 43 -13 13 -15 27 -3 27 5 0 16 -16 25 -35 9 -19
23 -35 32 -35 12 0 15 18 14 106 0 80 -3 103 -12 96 -16 -13 -77 -21 -109 -15
-18 3 -28 12 -30 27 -2 13 -10 21 -23 21 -14 0 -19 6 -17 18 2 11 -4 17 -18
17 -11 0 -20 -7 -20 -15 0 -8 6 -15 14 -15 19 0 29 -30 15 -46 -15 -18 -29
-18 -29 1 0 8 -7 15 -16 15 -8 0 -12 5 -8 11 3 6 8 34 10 61 4 59 34 99 59 78
16 -13 35 -5 35 14 0 9 9 12 25 8 16 -3 33 2 44 12 10 9 25 14 33 11 9 -4 23
1 32 10 20 20 23 140 4 148 -10 4 -10 6 0 6 9 1 12 52 12 222 0 150 -3 218
-10 214 -6 -4 -17 -2 -25 5 -22 18 -171 41 -200 30 -15 -6 -26 -6 -30 0 -9 15
-56 12 -89 -5 -32 -17 -96 -20 -96 -5 0 13 -27 13 -32 0 -2 -6 -27 -13 -55
-17 -32 -3 -59 -13 -69 -24 -10 -11 -21 -19 -26 -19 -20 0 -36 -26 -27 -43 6
-9 5 -18 -1 -22 -13 -8 -164 -8 -218 1 -23 3 -48 2 -55 -3 -13 -10 -63 -9 -90
2 -10 4 -36 5 -58 1 l-40 -6 22 29 c12 16 31 32 43 35 14 4 17 9 10 13 -8 6 1
31 30 80 23 39 62 114 86 165 l44 94 84 23 c224 59 492 180 691 312 109 73
111 74 111 112 0 43 2 43 -75 -13 -185 -134 -468 -271 -706 -344 -140 -43
-307 -74 -604 -111 -281 -36 -326 -48 -298 -76 9 -9 26 -9 70 0 81 16 145 18
150 5 7 -19 -59 -73 -116 -96 -46 -19 -75 -23 -165 -23 -80 0 -110 -3 -114
-13 -2 -7 9 -17 27 -23 17 -6 31 -17 31 -24 0 -13 -150 -139 -211 -178 -18
-12 -55 -20 -101 -24 l-73 -5 -200 113 c-110 61 -277 153 -372 204 -197 107
-276 159 -351 229 -86 81 -124 162 -158 331 -9 46 -21 82 -25 79 -5 -3 -9 -83
-9 -177 -1 -323 -24 -497 -84 -623 -76 -160 -198 -231 -333 -195 -88 24 -206
155 -296 329 -53 104 -207 467 -207 490 0 6 28 20 63 30 74 22 167 85 167 113
0 29 -20 23 -94 -25 -81 -53 -131 -66 -156 -39 -10 10 -31 50 -48 88 -16 39
-53 124 -81 191 -28 66 -51 125 -51 132 0 12 17 18 81 27 81 10 144 38 147 64
4 26 6 26 -101 -4 -32 -9 -79 -15 -105 -13 -40 3 -50 8 -69 36 -50 75 -93 253
-93 387 0 101 19 177 72 285 36 74 56 100 157 200 134 132 244 206 379 254
113 40 235 43 324 8 229 -91 359 -333 403 -749 4 -35 11 -63 16 -63 5 0 9 9 9
21 0 65 44 231 82 309 43 88 108 161 281 315 106 95 102 110 -111 348 -132
148 -205 208 -249 206 -10 -1 -31 -4 -48 -9z m61 -2339 c64 -71 158 -141 274
-206 47 -26 100 -59 119 -73 35 -26 81 -111 81 -149 0 -21 -5 -23 -56 -23 -52
0 -59 -3 -95 -39 -37 -36 -39 -42 -39 -100 0 -33 7 -94 16 -135 24 -108 21
-111 -68 -80 -104 37 -267 117 -311 154 -20 18 -45 46 -54 63 -23 45 -19 143
11 265 14 56 33 165 42 242 10 77 19 140 22 140 3 0 29 -27 58 -59z m-1506
-45 c0 -8 -4 -18 -10 -21 -5 -3 -10 3 -10 14 0 12 5 21 10 21 6 0 10 -6 10
-14z m-128 -28 c-8 -18 -17 -27 -19 -21 -5 15 14 53 27 53 4 0 1 -14 -8 -32z
m318 18 c0 -2 -7 -9 -15 -16 -13 -11 -14 -10 -9 4 5 14 24 23 24 12z m3516
-88 c-91 -203 -237 -388 -353 -444 -54 -27 -56 -27 -69 -9 -8 10 -14 36 -14
56 0 57 -15 86 -60 114 -34 22 -40 30 -40 61 0 44 18 79 64 123 20 19 41 50
47 68 9 28 15 33 42 33 18 1 100 11 182 24 83 13 167 24 187 25 l37 1 -23 -52z
m-3736 -38 c0 -5 -7 -10 -15 -10 -8 0 -15 5 -15 10 0 6 7 10 15 10 8 0 15 -4
15 -10z m316 -16 c-4 -9 -9 -15 -11 -12 -3 3 -3 13 1 22 4 9 9 15 11 12 3 -3
3 -13 -1 -22z m-106 -39 c-7 -9 -15 -13 -17 -11 -7 7 7 26 19 26 6 0 6 -6 -2
-15z m414 -31 c-4 -16 0 -23 18 -28 15 -5 18 -9 10 -13 -24 -9 -49 24 -44 58
3 22 7 27 13 18 4 -8 6 -23 3 -35z m-674 33 c0 -11 -60 -45 -65 -37 -3 5 7 16
22 24 27 15 43 19 43 13z m510 -5 c0 -10 -22 -32 -32 -32 -13 0 -9 28 5 33 19
8 27 8 27 -1z m-150 -23 c0 -6 -4 -7 -10 -4 -5 3 -10 11 -10 16 0 6 5 7 10 4
6 -3 10 -11 10 -16z m150 -22 c0 -2 -9 -15 -21 -28 -11 -13 -18 -31 -16 -41 3
-10 1 -15 -5 -12 -11 7 -2 52 14 71 10 12 28 18 28 10z m-165 -27 c-3 -5 -11
-10 -16 -10 -6 0 -7 5 -4 10 3 6 11 10 16 10 6 0 7 -4 4 -10z m2863 -44 c4
-42 -11 -66 -41 -66 -17 0 -19 4 -13 42 12 75 48 91 54 24z m-3010 26 c8 -6 2
-9 -18 -9 -20 0 -26 3 -18 9 7 4 15 8 18 8 3 0 11 -4 18 -8z m452 -2 c-20 -13
-33 -13 -25 0 3 6 14 10 23 10 15 0 15 -2 2 -10z m53 -12 c17 14 24 7 50 -45
13 -28 13 -33 1 -33 -8 0 -14 9 -14 19 0 21 -19 31 -61 31 -26 0 -28 2 -17 20
8 13 15 16 19 8 6 -9 11 -9 22 0z m-390 -10 c-2 -5 -11 -8 -19 -8 -8 0 -14 -4
-14 -9 0 -5 -9 -7 -20 -4 -29 8 -9 28 28 28 17 0 28 -3 25 -7z m1983 -90 c101
-57 184 -108 184 -113 0 -6 -21 -21 -47 -35 -69 -36 -194 -118 -225 -148 l-27
-25 -10 26 c-6 15 -24 98 -41 184 -17 87 -33 170 -36 186 -4 18 -2 27 6 27 6
0 95 -46 196 -102z m810 25 c-3 -42 -6 -125 -6 -185 0 -75 -4 -108 -12 -108
-6 0 -45 22 -87 49 -42 26 -100 60 -128 75 -29 14 -53 30 -53 35 0 11 136 125
209 174 80 55 85 52 77 -40z m-2716 57 c0 -5 -2 -10 -4 -10 -3 0 -8 5 -11 10
-3 6 -1 10 4 10 6 0 11 -4 11 -10z m-60 -20 c0 -5 -4 -10 -10 -10 -5 0 -10 5
-10 10 0 6 5 10 10 10 6 0 10 -4 10 -10z m-101 -14 c16 -9 20 -16 12 -20 -15
-10 -71 3 -71 16 0 6 7 7 16 4 8 -3 12 -2 9 4 -8 14 5 12 34 -4z m131 -6 c0
-5 -7 -10 -16 -10 -8 0 -12 5 -9 10 3 6 10 10 16 10 5 0 9 -4 9 -10z m162
-178 c8 -8 8 -15 -2 -27 -18 -22 -51 -18 -85 10 -36 30 -15 33 26 4 21 -15 29
-17 29 -7 0 20 -21 38 -43 38 -10 0 -16 4 -13 9 7 10 71 -10 88 -27z m38 23
c0 -8 -4 -15 -10 -15 -5 0 -10 7 -10 15 0 8 5 15 10 15 6 0 10 -7 10 -15z
m3310 5 c0 -5 12 -10 28 -11 l27 -1 -25 -7 c-14 -4 -31 -3 -37 2 -9 6 -13 6
-13 -1 0 -6 5 -14 11 -18 7 -4 7 -10 1 -16 -14 -14 -33 0 -30 20 5 30 38 57
38 32z m-3520 -10 c0 -5 -4 -10 -10 -10 -5 0 -10 5 -10 10 0 6 5 10 10 10 6 0
10 -4 10 -10z m27 -43 c-7 -12 -16 -25 -22 -29 -15 -11 -25 2 -16 20 5 9 12
25 15 36 5 15 9 16 21 6 11 -9 12 -16 2 -33z m428 26 c45 21 95 14 88 -14 -5
-19 12 -28 19 -9 2 5 8 6 14 2 8 -5 8 -15 3 -31 -9 -21 -11 -22 -27 -9 -23 20
-52 30 -52 18 0 -15 -48 -12 -75 6 -21 14 -24 14 -32 -1 -6 -10 -16 -13 -26
-9 -23 8 -21 25 3 31 11 3 20 13 20 22 1 13 3 13 15 -3 14 -19 17 -19 50 -3z
m2950 1 c12 -13 13 -19 4 -24 -7 -5 -9 -16 -5 -26 6 -16 8 -15 27 4 24 26 24
27 47 4 19 -19 18 -52 -1 -52 -27 -1 -39 -17 -28 -37 5 -11 8 -23 5 -25 -5 -6
-60 12 -81 25 -6 4 -18 4 -27 1 -10 -4 -16 -1 -16 10 0 10 6 13 15 10 10 -4
15 0 15 15 0 12 7 24 16 28 15 6 15 8 -2 20 -30 22 -44 16 -45 -19 0 -18 -3
-27 -6 -20 -2 6 -11 12 -19 12 -8 0 -14 -6 -14 -12 0 -9 -3 -9 -9 1 -5 8 -25
15 -44 15 -19 1 -42 8 -51 15 -10 9 -16 10 -16 2 0 -6 -7 -11 -15 -11 -17 0
-20 -25 -5 -35 17 -10 2 -24 -20 -18 -11 3 -20 1 -20 -5 0 -16 -79 -20 -92 -4
-18 21 6 39 28 21 13 -11 18 -11 21 -1 3 6 11 12 19 12 8 0 14 5 14 10 0 6 23
22 51 35 29 13 56 30 60 37 7 10 9 9 9 -3 0 -27 60 -31 87 -7 14 13 28 18 42
13 14 -4 23 -1 27 9 8 20 9 20 29 0z m-2384 -27 c-9 -9 -14 -8 -21 3 -7 11 -4
17 8 21 21 8 29 -8 13 -24z m-735 -16 c-9 -15 -49 -14 -64 1 -19 19 -14 26 16
30 30 4 58 -14 48 -31z m3324 -3 c0 -3 -13 -11 -30 -16 -34 -12 -46 -2 -31 27
9 16 14 18 36 8 14 -7 25 -15 25 -19z m-2640 2 c0 -28 -47 -50 -62 -29 -8 11
-9 11 -5 -3 10 -29 -17 -40 -43 -18 -21 18 -21 20 -4 20 15 1 56 18 112 49 1
0 2 -8 2 -19z m2730 6 c0 -22 -17 -28 -50 -21 -52 11 -37 25 38 34 6 0 12 -5
12 -13z m-3073 -38 c-3 -8 -6 -5 -6 6 -1 11 2 17 5 13 3 -3 4 -12 1 -19z
m-1107 -23 c-7 -8 -17 -15 -22 -15 -11 0 14 29 26 30 5 0 3 -7 -4 -15z m130
-6 c0 -8 -11 -9 -32 -5 -23 4 -28 3 -18 -3 8 -6 11 -13 7 -18 -9 -9 -28 17
-21 29 8 12 64 9 64 -3z m1042 -1 c-8 -8 -8 -15 -1 -24 8 -10 3 -12 -28 -7
-44 7 -56 13 -24 13 12 0 24 7 27 15 4 8 13 15 22 15 12 0 13 -3 4 -12z m153
-8 c-3 -4 -13 -7 -23 -5 -9 2 -21 4 -27 5 -5 1 1 5 15 9 27 9 43 4 35 -9z
m2395 10 c12 -8 11 -10 -7 -10 -13 0 -23 5 -23 10 0 13 11 13 30 0z m-2726 -9
c6 -9 -54 -25 -62 -16 -3 3 2 5 11 5 10 0 17 5 17 10 0 12 27 13 34 1z m2789
-28 c-9 -7 -13 -14 -7 -14 5 -1 14 -2 19 -4 6 -1 18 -3 28 -3 9 -1 17 -9 17
-18 0 -11 -5 -14 -16 -10 -9 3 -23 6 -33 6 -18 0 -55 55 -47 69 4 5 17 4 31
-2 23 -11 23 -13 8 -24z m-2732 -13 c10 0 19 5 19 11 0 5 5 7 10 4 6 -3 10
-17 10 -31 0 -15 -4 -23 -11 -19 -5 4 -19 -1 -30 -11 -18 -16 -19 -16 -19 8 0
14 -7 31 -15 38 -12 10 -13 15 -3 28 11 13 13 13 16 -6 2 -14 11 -22 23 -22z
m-111 -16 c0 -8 -4 -14 -10 -14 -5 0 -10 9 -10 21 0 11 5 17 10 14 6 -3 10
-13 10 -21z m343 12 c10 -8 14 -17 9 -20 -15 -9 -42 4 -42 20 0 17 10 17 33 0z
m-392 -21 c0 -6 7 -20 15 -32 13 -21 13 -23 -6 -23 -32 0 -49 21 -39 49 9 22
31 26 30 6z m83 0 c-4 -8 -8 -15 -10 -15 -2 0 -4 7 -4 15 0 8 4 15 10 15 5 0
7 -7 4 -15z m3891 -5 c-3 -5 -13 -10 -21 -10 -8 0 -12 5 -9 10 3 6 13 10 21
10 8 0 12 -4 9 -10z m-455 -66 c0 -14 -4 -23 -9 -20 -5 3 -7 15 -4 26 7 28 13
25 13 -6z m-115 -4 c3 -6 -1 -7 -9 -4 -18 7 -21 14 -7 14 6 0 13 -4 16 -10z
m150 -10 c-3 -5 -10 -10 -16 -10 -5 0 -9 5 -9 10 0 6 7 10 16 10 8 0 12 -4 9
-10z m-3295 -35 c-7 -8 -14 -15 -15 -15 -2 0 -5 7 -9 15 -4 10 1 15 16 15 17
0 18 -2 8 -15z m3151 -7 c1 -7 0 -20 -1 -28 -1 -12 1 -13 11 -2 16 14 65 16
74 2 11 -17 25 -11 25 11 0 12 4 18 11 13 6 -3 16 0 21 7 6 9 7 3 2 -20 -5
-29 -4 -33 11 -27 11 4 15 2 13 -6 -3 -9 -30 -13 -86 -13 -81 0 -82 0 -92 29
-5 16 -10 33 -10 37 0 14 20 10 21 -3z m-3551 -8 c0 -5 -5 -10 -11 -10 -5 0
-7 5 -4 10 3 6 8 10 11 10 2 0 4 -4 4 -10z m3470 -52 c0 -5 -3 -8 -7 -9 -5 0
-20 -2 -35 -4 -30 -4 -38 9 -12 19 8 3 13 10 10 15 -3 5 5 4 19 -2 14 -7 25
-15 25 -19z m-370 -42 c0 -4 -7 -5 -16 -2 -9 3 -25 6 -35 6 -11 0 -17 5 -14
10 3 6 -1 13 -11 17 -11 4 -23 -2 -35 -18 -10 -13 -19 -18 -19 -11 0 8 10 22
22 31 21 17 23 17 65 -3 24 -12 43 -25 43 -30z m287 28 c-9 -9 -28 6 -21 18 4
6 10 6 17 -1 6 -6 8 -13 4 -17z m-70 -39 c-15 -16 -19 -13 -11 9 3 9 10 13 15
10 5 -3 3 -11 -4 -19z m40 -7 c-3 -8 -6 -5 -6 6 -1 11 2 17 5 13 3 -3 4 -12 1
-19z m143 7 c0 -26 23 -65 38 -65 11 0 13 9 8 43 -4 30 -3 37 4 25 8 -12 22
-15 62 -13 29 1 58 -2 65 -7 6 -5 38 -8 70 -6 50 3 61 0 82 -21 20 -19 24 -32
22 -75 -2 -71 -9 -88 -34 -85 -12 0 -24 0 -27 -1 -20 -9 -67 -7 -80 4 -8 7
-23 16 -32 19 -10 4 -18 13 -18 22 0 20 -56 20 -64 0 -3 -8 -14 -15 -24 -15
-11 0 -25 -6 -31 -14 -6 -7 -32 -16 -57 -19 -26 -2 -49 -9 -53 -13 -3 -5 -16
-14 -28 -21 -17 -10 -22 -9 -27 3 -3 8 -10 12 -16 9 -5 -3 -10 -1 -10 5 0 8
-20 11 -62 8 -73 -4 -98 11 -98 54 0 24 4 28 28 28 18 0 38 10 53 26 l24 27
-35 -8 c-19 -4 -48 -9 -65 -10 -22 -1 -31 -7 -33 -23 -2 -12 -7 -22 -12 -22
-8 0 -75 33 -107 53 -7 5 -2 17 17 37 31 33 42 36 59 16 6 -8 26 -12 46 -10
25 2 35 -2 35 -12 0 -19 19 -18 27 1 4 13 15 15 52 10 25 -4 55 -10 66 -15 64
-27 95 -33 95 -21 0 5 9 12 19 16 24 7 35 44 15 52 -11 4 -12 9 -3 19 15 18
29 18 29 -1z m-4195 -25 c-3 -5 -10 -10 -16 -10 -5 0 -9 5 -9 10 0 6 7 10 16
10 8 0 12 -4 9 -10z m3752 -6 c-3 -3 -12 -4 -19 -1 -8 3 -5 6 6 6 11 1 17 -2
13 -5z m-768 -18 c13 -16 16 7 -68 -486 -27 -162 -58 -361 -67 -442 -11 -97
-21 -148 -29 -148 -16 0 -310 602 -378 775 -81 205 -82 184 7 244 41 27 78 46
81 41 12 -19 94 -32 203 -31 88 0 122 4 156 19 24 11 47 25 50 31 10 15 31 14
45 -3z m1618 -348 c-3 -8 -6 -5 -6 6 -1 11 2 17 5 13 3 -3 4 -12 1 -19z m-102
-17 c-6 -5 -25 10 -25 20 0 5 6 4 14 -3 8 -7 12 -15 11 -17z m73 -12 c-3 -8
-7 -3 -11 10 -4 17 -3 21 5 13 5 -5 8 -16 6 -23z m-278 -9 c0 -5 10 -10 23
-10 12 0 29 -5 37 -10 12 -7 8 -12 -17 -21 -18 -6 -33 -15 -33 -20 0 -5 -11
-9 -25 -9 -28 0 -33 15 -9 24 11 4 15 14 12 31 -3 14 -1 25 3 25 5 0 9 -4 9
-10z m110 -20 c0 -5 -5 -10 -11 -10 -5 0 -7 5 -4 10 3 6 8 10 11 10 2 0 4 -4
4 -10z m178 -15 c-3 -3 -9 2 -12 12 -6 14 -5 15 5 6 7 -7 10 -15 7 -18z m242
-10 c0 -8 -2 -15 -4 -15 -2 0 -6 7 -10 15 -3 8 -1 15 4 15 6 0 10 -7 10 -15z
m-420 -15 c0 -13 -7 -20 -19 -20 -11 0 -23 -4 -26 -10 -8 -14 -42 -13 -51 2
-5 7 -3 8 5 4 15 -10 68 11 75 30 8 20 16 17 16 -6z m-240 -51 c0 -4 -11 -6
-25 -6 -29 0 -33 12 -8 26 17 9 32 -1 33 -20z m376 16 c19 -14 18 -14 -3 -15
-13 0 -23 -4 -23 -10 0 -5 -4 -10 -9 -10 -4 0 -6 11 -3 25 5 29 11 30 38 10z
m-306 -25 c0 -5 -4 -10 -9 -10 -6 0 -13 5 -16 10 -3 6 1 10 9 10 9 0 16 -4 16
-10z m80 1 c3 -1 -3 -6 -12 -12 -11 -6 -18 -22 -18 -40 0 -25 -4 -30 -22 -27
-16 2 -22 10 -23 31 0 15 3 27 7 27 4 0 8 6 8 13 0 10 30 14 60 8z m170 -16
c11 -13 8 -15 -15 -15 -23 0 -26 2 -15 15 7 8 14 15 15 15 1 0 8 -7 15 -15z
m-365 -15 c3 -5 1 -10 -4 -10 -6 0 -11 5 -11 10 0 6 2 10 4 10 3 0 8 -4 11
-10z m-135 -44 c0 -3 -4 -8 -10 -11 -5 -3 -10 -1 -10 4 0 6 5 11 10 11 6 0 10
-2 10 -4z m-4010 -32 c0 -8 -4 -12 -10 -9 -5 3 -10 13 -10 21 0 8 5 12 10 9 6
-3 10 -13 10 -21z m-50 -45 c0 -6 -4 -7 -10 -4 -5 3 -10 11 -10 16 0 6 5 7 10
4 6 -3 10 -11 10 -16z m4095 -23 c29 5 45 3 45 -4 0 -11 -44 -20 -127 -26 -52
-4 -55 10 -11 41 32 23 33 23 40 3 6 -17 13 -19 53 -14z m-3944 -59 c19 -14
36 -77 21 -77 -5 0 -17 10 -25 23 -13 18 -16 19 -16 5 -1 -9 -5 -20 -11 -23
-5 -3 -9 8 -8 28 1 19 -2 39 -6 45 -10 16 24 15 45 -1z m3959 -13 c0 -8 5 -12
10 -9 6 3 10 1 10 -5 0 -8 -9 -10 -24 -6 -14 3 -28 2 -31 -4 -8 -13 -75 -13
-75 0 0 5 16 12 35 16 19 3 38 10 41 15 9 15 34 10 34 -7z m-4010 -9 c0 -8 -4
-15 -10 -15 -5 0 -10 -7 -10 -15 0 -18 -12 -19 -28 -3 -17 17 -15 36 6 41 33
9 42 7 42 -8z m4660 -19 c0 -11 -19 -15 -25 -6 -3 5 1 10 9 10 9 0 16 -2 16
-4z m-4520 -40 c0 -9 -7 -12 -20 -9 -11 3 -20 9 -20 14 0 5 9 9 20 9 11 0 20
-6 20 -14z m4432 -20 c20 6 24 -6 7 -23 -7 -7 -8 -22 0 -48 11 -41 8 -55 -15
-55 -8 0 -14 -10 -14 -25 0 -14 -4 -25 -10 -25 -5 0 -10 9 -10 20 0 11 -4 20
-10 20 -5 0 -10 -9 -10 -19 0 -16 -6 -19 -33 -17 -18 2 -42 8 -53 14 -28 15
-48 0 -40 -29 6 -20 5 -21 -4 -7 -6 10 -17 15 -26 11 -14 -5 -14 -3 -2 18 7
13 17 27 23 31 5 4 6 11 1 15 -5 4 -11 2 -13 -4 -7 -20 -20 -15 -26 8 -3 12
-13 20 -24 19 -30 -4 -43 0 -43 10 0 5 3 9 8 9 22 -4 28 4 24 30 -5 34 1 36
96 46 35 4 75 13 89 20 22 12 28 11 46 -6 12 -11 28 -17 39 -13z m-4622 -1 c0
-8 -9 -19 -20 -25 -23 -12 -25 -7 -10 21 13 22 30 25 30 4z m33 -25 c-3 -11
-7 -20 -9 -20 -2 0 -4 9 -4 20 0 11 4 20 9 20 5 0 7 -9 4 -20z m253 -6 c-21
-20 -28 -17 -14 5 7 11 16 17 20 15 5 -3 2 -12 -6 -20z m3830 11 c-7 -19 16
-20 52 -1 35 18 162 20 162 3 0 -7 -14 -13 -31 -14 -35 -3 -51 -13 -31 -20 19
-7 15 -18 -19 -54 l-31 -33 6 35 c7 38 -5 66 -24 54 -8 -5 -9 -10 -1 -14 20
-13 -2 -51 -47 -81 l-46 -30 -19 30 c-16 25 -22 28 -38 19 -11 -5 -29 -7 -39
-4 -11 4 -20 2 -20 -4 0 -6 -7 -8 -16 -4 -13 5 -15 2 -10 -14 4 -14 1 -23 -9
-27 -12 -4 -15 2 -15 29 0 34 13 54 25 35 9 -15 25 -12 25 5 0 8 -4 15 -8 15
-4 0 -8 9 -9 20 -2 19 10 24 48 21 9 -1 19 5 22 14 4 10 1 15 -11 15 -15 0
-15 2 -2 10 8 5 32 10 54 10 30 0 37 -3 32 -15z m-3782 -21 c3 -8 2 -12 -4 -9
-6 3 -10 10 -10 16 0 14 7 11 14 -7z m-387 0 c-3 -3 -12 -4 -19 -1 -8 3 -5 6
6 6 11 1 17 -2 13 -5z m563 -15 c0 -9 -7 -23 -16 -30 -15 -12 -16 -11 -10 9 5
13 3 22 -3 22 -6 0 -11 -4 -11 -10 0 -5 -7 -10 -15 -10 -7 0 -19 -8 -24 -17
-15 -25 -13 -2 2 30 10 22 18 26 44 24 23 -1 33 -7 33 -18z m-110 2 c0 -6 -4
-13 -10 -16 -5 -3 -10 1 -10 9 0 9 5 16 10 16 6 0 10 -4 10 -9z m-430 -67 c0
-8 -5 -12 -10 -9 -6 4 -8 11 -5 16 9 14 15 11 15 -7z m-50 -14 c0 -5 -5 -10
-11 -10 -5 0 -7 5 -4 10 3 6 8 10 11 10 2 0 4 -4 4 -10z m149 -4 c10 -12 8
-13 -8 -9 -12 3 -18 9 -15 14 7 12 10 11 23 -5z m274 -56 c-3 -11 -9 -20 -13
-20 -5 0 -6 9 -3 20 3 11 9 20 13 20 5 0 6 -9 3 -20z m4227 0 c0 -5 -2 -10 -4
-10 -3 0 -8 5 -11 10 -3 6 -1 10 4 10 6 0 11 -4 11 -10z m-4381 -50 c20 -9 26
-30 8 -30 -23 0 -53 -38 -39 -52 8 -8 7 -14 -3 -24 -21 -21 -25 -17 -18 17 6
30 5 31 -16 20 -28 -16 -51 -3 -27 15 10 7 16 21 14 31 -2 10 3 25 11 35 11
13 18 14 35 6 12 -6 27 -14 35 -18z m74 -11 c20 -1 20 -2 -3 -8 -26 -8 -40 2
-40 29 1 12 3 11 11 -2 5 -10 20 -18 32 -19z m168 -2 c-8 -8 -11 -7 -11 4 0
20 13 34 18 19 3 -7 -1 -17 -7 -23z m-61 4 c-1 -15 -17 -26 -37 -26 -27 1 -42
14 -26 23 15 9 63 12 63 3z"/>
<path d="M4010 1644 c0 -9 5 -14 12 -12 18 6 21 28 4 28 -9 0 -16 -7 -16 -16z"/>
<path d="M3970 1604 c0 -9 5 -14 12 -12 18 6 21 28 4 28 -9 0 -16 -7 -16 -16z"/>
<path d="M4648 1253 c7 -3 16 -2 19 1 4 3 -2 6 -13 5 -11 0 -14 -3 -6 -6z"/>
<path d="M4320 1185 c0 -9 6 -12 15 -9 8 4 15 10 15 15 0 5 -7 9 -15 9 -8 0
-15 -7 -15 -15z"/>
<path d="M4385 1190 c-3 -5 1 -10 9 -10 9 0 16 5 16 10 0 6 -4 10 -9 10 -6 0
-13 -4 -16 -10z"/>
<path d="M4573 315 c-3 -9 -3 -18 -1 -21 3 -3 8 4 11 16 6 23 -1 27 -10 5z"/>
<path d="M4256 304 c-10 -25 -7 -34 9 -34 8 0 15 9 15 19 0 26 -16 35 -24 15z"/>
<path d="M4980 4345 c0 -8 5 -15 10 -15 6 0 10 7 10 15 0 8 -4 15 -10 15 -5 0
-10 -7 -10 -15z"/>
<path d="M4976 4301 c-12 -13 -16 -25 -10 -31 15 -15 36 5 32 30 l-3 22 -19
-21z"/>
<path d="M4920 4296 c0 -9 7 -16 16 -16 9 0 14 5 12 12 -6 18 -28 21 -28 4z"/>
<path d="M4815 4179 c-4 -6 -5 -13 -2 -16 7 -7 27 6 27 18 0 12 -17 12 -25 -2z"/>
<path d="M4980 4081 c0 -5 -8 -7 -19 -4 -14 3 -20 -2 -25 -22 -8 -33 -6 -35
30 -38 27 -2 29 1 32 36 2 21 -1 37 -7 37 -6 0 -11 -4 -11 -9z"/>
<path d="M4955 3940 c-3 -5 -1 -10 4 -10 6 0 11 5 11 10 0 6 -2 10 -4 10 -3 0
-8 -4 -11 -10z"/>
<path d="M4845 3800 c-3 -5 -1 -10 4 -10 6 0 11 5 11 10 0 6 -2 10 -4 10 -3 0
-8 -4 -11 -10z"/>
<path d="M4787 3770 c3 -11 9 -20 14 -20 11 0 11 3 3 24 -9 23 -23 20 -17 -4z"/>
<path d="M4870 3755 c0 -8 5 -15 10 -15 6 0 10 7 10 15 0 8 -4 15 -10 15 -5 0
-10 -7 -10 -15z"/>
<path d="M4800 3710 c0 -5 5 -10 10 -10 6 0 10 5 10 10 0 6 -4 10 -10 10 -5 0
-10 -4 -10 -10z"/>
<path d="M2409 3625 c-107 -34 -204 -134 -235 -243 -23 -80 -16 -192 18 -264
33 -71 100 -138 176 -175 51 -25 67 -28 162 -28 96 0 110 2 158 28 72 38 138
106 170 175 24 50 27 69 27 162 0 96 -3 110 -28 158 -36 69 -101 133 -169 168
-44 23 -68 28 -143 31 -60 2 -106 -2 -136 -12z m258 -65 c36 -18 78 -49 99
-73 38 -44 61 -84 52 -92 -8 -8 -565 -28 -583 -21 -14 5 -13 12 12 57 26 49
81 102 133 129 92 48 188 48 287 0z m172 -219 c20 -13 10 -134 -17 -193 -29
-66 -94 -133 -161 -165 -78 -38 -193 -39 -265 -4 -116 57 -196 177 -196 292 0
41 2 43 43 53 24 6 30 2 48 -29 26 -43 54 -45 77 -5 21 36 43 40 252 50 85 4
166 7 180 8 14 1 31 -2 39 -7z"/>
<path d="M4790 3540 c-29 -40 -14 -61 19 -26 17 18 20 29 13 41 -8 15 -12 13
-32 -15z"/>
<path d="M4840 3340 c0 -5 5 -10 10 -10 6 0 10 5 10 10 0 6 -4 10 -10 10 -5 0
-10 -4 -10 -10z"/>
<path d="M1 2530 c0 -33 1 -34 11 -12 8 17 8 26 0 34 -9 9 -12 4 -11 -22z"/>
<path d="M2 2425 c0 -16 2 -22 5 -12 2 9 2 23 0 30 -3 6 -5 -1 -5 -18z"/>
<path d="M346 2391 c-4 -7 -5 -15 -2 -18 9 -9 19 4 14 18 -4 11 -6 11 -12 0z"/>
<path d="M170 2369 c0 -5 5 -7 10 -4 6 3 10 8 10 11 0 2 -4 4 -10 4 -5 0 -10
-5 -10 -11z"/>
<path d="M261 2364 c0 -11 3 -14 6 -6 3 7 2 16 -1 19 -3 4 -6 -2 -5 -13z"/>
<path d="M590 2370 c0 -5 5 -10 10 -10 6 0 10 5 10 10 0 6 -4 10 -10 10 -5 0
-10 -4 -10 -10z"/>
<path d="M115 2319 c-10 -15 3 -25 16 -12 7 7 7 13 1 17 -6 3 -14 1 -17 -5z"/>
<path d="M810 2115 c0 -14 5 -25 10 -25 6 0 10 11 10 25 0 14 -4 25 -10 25 -5
0 -10 -11 -10 -25z"/>
<path d="M247 1563 c-4 -3 -7 -18 -7 -32 l1 -26 19 24 c11 13 20 27 20 32 0
10 -24 12 -33 2z"/>
<path d="M165 1540 c-3 -5 -1 -10 4 -10 6 0 11 5 11 10 0 6 -2 10 -4 10 -3 0
-8 -4 -11 -10z"/>
<path d="M438 1539 c-10 -5 -18 -17 -18 -25 0 -8 -4 -13 -9 -9 -14 8 -25 -15
-13 -27 11 -11 62 35 62 57 0 17 0 17 -22 4z"/>
<path d="M280 1520 c-11 -7 -12 -15 -4 -37 10 -29 44 -39 52 -15 2 7 -2 10
-11 6 -10 -3 -16 3 -19 20 -4 17 -1 23 9 19 7 -3 13 0 13 6 0 13 -20 14 -40 1z"/>
<path d="M180 1505 c0 -8 5 -15 10 -15 6 0 10 7 10 15 0 8 -4 15 -10 15 -5 0
-10 -7 -10 -15z"/>
<path d="M110 1475 c0 -8 5 -15 10 -15 6 0 10 7 10 15 0 8 -4 15 -10 15 -5 0
-10 -7 -10 -15z"/>
<path d="M357 1474 c-8 -8 1 -24 14 -24 5 0 9 7 9 15 0 15 -12 20 -23 9z"/>
<path d="M10 1455 c0 -8 7 -15 15 -15 8 0 15 7 15 15 0 8 -7 15 -15 15 -8 0
-15 -7 -15 -15z"/>
<path d="M190 1450 c0 -5 5 -10 10 -10 6 0 10 5 10 10 0 6 -4 10 -10 10 -5 0
-10 -4 -10 -10z"/>
<path d="M250 1421 c0 -6 5 -13 10 -16 6 -3 10 1 10 9 0 9 -4 16 -10 16 -5 0
-10 -4 -10 -9z"/>
<path d="M4957 1165 c-8 -18 11 -31 25 -17 11 11 3 32 -12 32 -4 0 -10 -7 -13
-15z"/>
<path d="M1663 608 c3 -13 17 -54 32 -93 19 -50 27 -90 28 -140 1 -67 -2 -74
-61 -185 -33 -63 -68 -132 -77 -153 l-15 -37 28 0 c26 0 32 7 56 63 40 95 116
207 200 295 75 79 85 95 66 107 -12 7 -68 -25 -95 -55 -29 -33 -41 -24 -55 41
-19 91 -64 179 -91 179 -17 0 -20 -4 -16 -22z"/>
<path d="M4495 620 c4 -6 11 -8 16 -5 14 9 11 15 -7 15 -8 0 -12 -5 -9 -10z"/>
<path d="M4560 620 c0 -5 5 -10 10 -10 6 0 10 5 10 10 0 6 -4 10 -10 10 -5 0
-10 -4 -10 -10z"/>
<path d="M4366 575 c-22 -20 -34 -45 -23 -45 21 0 67 35 67 51 0 25 -12 24
-44 -6z"/>
<path d="M4310 520 c-13 -8 -13 -11 2 -26 16 -17 19 -17 38 1 20 18 20 20 3
26 -24 10 -26 10 -43 -1z"/>
<path d="M4575 500 c3 -5 8 -10 11 -10 2 0 4 5 4 10 0 6 -5 10 -11 10 -5 0 -7
-4 -4 -10z"/>
<path d="M4895 410 c3 -5 11 -10 16 -10 6 0 7 5 4 10 -3 6 -11 10 -16 10 -6 0
-7 -4 -4 -10z"/>
<path d="M4885 340 c-3 -5 -1 -10 4 -10 6 0 11 5 11 10 0 6 -2 10 -4 10 -3 0
-8 -4 -11 -10z"/>
<path d="M4920 330 c0 -5 5 -10 10 -10 6 0 10 5 10 10 0 6 -4 10 -10 10 -5 0
-10 -4 -10 -10z"/>
</g>
</svg>
